<?xml version="1.0" encoding="utf-8"?>
<!-- Generator: Adobe Illustrator 17.1.0, SVG Export Plug-In . SVG Version: 6.00 Build 0)  -->
<!DOCTYPE svg PUBLIC "-//W3C//DTD SVG 1.1//EN" "http://www.w3.org/Graphics/SVG/1.1/DTD/svg11.dtd">
<svg version="1.1" id="图层_1" xmlns="http://www.w3.org/2000/svg" xmlns:xlink="http://www.w3.org/1999/xlink" x="0px" y="0px"
	 viewBox="0 0 508.5 91.4" enable-background="new 0 0 508.5 91.4" xml:space="preserve">
<path fill="none" stroke="#1EB9EF" stroke-width="12" stroke-miterlimit="10" d="M39.9,85.3H6V34h33.9c7.9,0,14.3,6.8,14.3,15.2v21
	C54.2,78.5,47.8,85.3,39.9,85.3z"/>
<path fill="none" stroke="#FFFFFF" stroke-width="12" stroke-linecap="round" stroke-miterlimit="10" d="M220,85.3v-49h34.5
	c8,0,14.5,6.5,14.5,14.5v34.5"/>
<path fill="none" stroke="#FFFFFF" stroke-width="12" stroke-linecap="round" stroke-miterlimit="10" d="M77,85.3v-49h34.5
	c8,0,14.5,6.5,14.5,14.5v1.5c0,8-6.5,14.5-14.5,14.5H77"/>
<g>
	<path fill="#1EB9EF" d="M300.6,12.3v-10h44.9v10H300.6z M300.6,40.7v-9.8h44.9v9.8h-20.4l-10.8,34.6c-0.4,1.4-0.6,2.5-0.6,3.2
		c0,1.7,1.4,2.6,4.3,2.6h12.6c2,0,3.4-0.4,4.5-1.3c0.9-0.8,1.4-1.8,1.4-3c0-0.7-0.1-1.5-0.4-2.5l-2.2-8H344l2.2,8.9
		c0.4,1.6,0.6,2.9,0.6,3.9c0,4.3-2,7.5-5.9,9.8c-2.6,1.5-5.6,2.3-9,2.3h-17.7c-4.5,0-7.9-1.1-10.2-3.4c-1.7-1.7-2.6-4-2.6-7
		c0-1.9,0.4-4,1.2-6.4l10.9-33.8L300.6,40.7L300.6,40.7z M348.4,91.4V79.3c2.2-1.1,3.8-2.9,4.7-5.4c1-2.5,1.6-5.4,2-8.7l5.3-46.7
		h-11.9v-10h13l0.9-7.3h10.2l-0.9,7.3h11.1c3.4,0,6,0.3,7.6,1c3.6,1.3,6.1,3.8,7.5,7.4c0.6,1.5,0.9,3.3,0.9,5.2v54.6
		c0,4.3-1.1,7.6-3.2,10c-2.7,3-6.4,4.5-11.1,4.5h-14v-9.8h11.3c2.8,0,4.8-0.6,5.9-1.9c0.9-1.1,1.3-2.7,1.3-5.1V25
		c0-4.3-2.1-6.4-6.2-6.4h-12.3L364.8,66c-0.8,6.9-2.7,12.6-5.7,17.1C356.6,86.8,353.1,89.5,348.4,91.4z"/>
	<path fill="#1EB9EF" d="M409.6,17.5v-3.2c0-6.7,3.9-10,11.7-10h32.6V0h9.8v4.3h32.4c4.5,0,7.6,0.9,9.4,2.8s2.7,4.2,2.7,7v3.4h-10.1
		v-0.9c0-1.7-1-2.6-3-2.6h-71.6c-2.6,0-3.9,0.8-3.9,2.4v1h-10V17.5z M409.6,90.8v-9.5c2.8-0.4,4.7-1.4,5.7-3c0.6-1,1.3-3.2,2-6.5h10
		c-0.3,1.2-0.5,2-0.6,2.6c-1,4.1-1.8,6.9-2.7,8.4C421.3,87.7,416.5,90.4,409.6,90.8z M409.7,57.9l0.2-7.6c6.4,0,11.7-0.9,16.1-2.8
		h-15.7V42h24.3l3.5-3h-27.7v-5.5h0.2v-7.2c3.7-1.6,6.7-4.4,9.2-8.5h9c-0.6,1.5-1.4,3-2.2,4.5h23.8c2.7,0,4.8,0.6,6.2,1.9
		c1.4,1.2,2.1,2.7,2.1,4.5c0,2.4-2.4,5.9-7.2,10.5c-1.5,1.4-3.3,3.1-5.3,5.2H480c-6.8-6.2-12.5-14-17-23.2h10.7l1.4,2.3h22.5
		c6.2,0,9.4,1.9,9.4,5.8c0,1.6-0.7,3.4-2.2,5.3l-8.3,11c3.3,2,7.3,3.6,11.9,4.9v7.8c-5-0.5-10.1-2.2-15.2-5.1H434
		c-4.1,2-7.9,3.3-11.5,3.9C419,57.6,414.9,57.9,409.7,57.9z M409.7,68.9v-9.4h98.5v9.4h-44v9.7c0,4.9-1.3,8.3-3.8,10.2
		c-1.8,1.4-4.9,2.1-9,2.1H445V80.8h5.4c1.5,0,2.5-0.1,2.9-0.4c0.7-0.5,1.1-1.5,1.1-3v-8.5H409.7z M412.9,33.5h31.4
		c1.2-1.1,1.8-2,1.8-2.7c0-1-0.9-1.5-2.7-1.5h-22.5c-0.5,0.3-0.9,0.6-1.2,0.7C417.8,31.5,415.5,32.6,412.9,33.5z M489,40.7
		c1.2-1.2,2.8-3.1,4.8-5.5c1.6-1.8,2.3-2.9,2.3-3.2c0-0.5-0.6-0.8-1.9-0.8h-14.6C483.3,35.5,486.4,38.6,489,40.7z M490.7,71.7h10.2
		c0.5,3.7,1.1,6,1.9,7c1.1,1.3,3,2.1,5.7,2.5v9.6c-6-0.8-10.4-2.7-13-5.9c-1.6-1.9-2.9-4.5-3.7-7.6
		C491.5,76.2,491.1,74.4,490.7,71.7z"/>
</g>
<path fill="none" stroke="#FFFFFF" stroke-width="11" stroke-linecap="round" stroke-linejoin="round" stroke-miterlimit="10" d="
	M195.9,86.7h-35.4c-7.5,0-13.6-6.1-13.6-13.5V49.8c0-7.5,6.1-13.5,13.6-13.5h35.4"/>
<line fill="none" stroke="#FFFFFF" stroke-width="11" stroke-linecap="round" stroke-linejoin="round" stroke-miterlimit="10" x1="146.9" y1="60.8" x2="187" y2="60.8"/>
</svg>
